<svg width="15" height="18" viewBox="0 0 15 18" fill="none" xmlns="http://www.w3.org/2000/svg">
                            <path opacity="0.3"
                                d="M7.00033 4.41675C4.92533 4.41675 3.66699 6.10008 3.66699 8.16675V13.1667H10.3337V8.16675C10.3337 6.10008 9.07533 4.41675 7.00033 4.41675Z"
                                fill="#909191"></path>
                            <path
                                d="M7.00016 17.3334C7.91683 17.3334 8.66683 16.5834 8.66683 15.6667H5.3335C5.3335 16.5834 6.0835 17.3334 7.00016 17.3334Z"
                                fill="#909191"></path>
                            <path fill-rule="evenodd" clip-rule="evenodd"
                                d="M12.0002 8.16671V12.3334L13.6668 14V14.8334H0.333496V14L2.00016 12.3334V8.16671C2.00016 5.60004 3.36683 3.46671 5.75016 2.90004V2.33337C5.75016 1.64171 6.3085 1.08337 7.00016 1.08337C7.69183 1.08337 8.25016 1.64171 8.25016 2.33337V2.90004C10.6418 3.46671 12.0002 5.60837 12.0002 8.16671ZM3.66683 13.1667H10.3335V8.16671C10.3335 6.10004 9.07516 4.41671 7.00016 4.41671C4.92516 4.41671 3.66683 6.10004 3.66683 8.16671V13.1667Z"
                                fill="#909191"></path>
                        </svg>