<svg width="20" height="20" viewBox="0 0 20 20" fill="none"
                                                    xmlns="http://www.w3.org/2000/svg">
                                                    <path fill-rule="evenodd" clip-rule="evenodd"
                                                        d="M10.0002 6.53057C10.9168 6.53057 11.6668 5.79587 11.6668 4.89791C11.6668 3.99995 10.9168 3.26526 10.0002 3.26526C9.0835 3.26526 8.3335 3.99995 8.3335 4.89791C8.3335 5.79587 9.0835 6.53057 10.0002 6.53057ZM10.0002 8.16322C9.0835 8.16322 8.3335 8.89791 8.3335 9.79587C8.3335 10.6938 9.0835 11.4285 10.0002 11.4285C10.9168 11.4285 11.6668 10.6938 11.6668 9.79587C11.6668 8.89791 10.9168 8.16322 10.0002 8.16322ZM8.3335 14.6938C8.3335 13.7959 9.0835 13.0612 10.0002 13.0612C10.9168 13.0612 11.6668 13.7959 11.6668 14.6938C11.6668 15.5918 10.9168 16.3265 10.0002 16.3265C9.0835 16.3265 8.3335 15.5918 8.3335 14.6938Z"
                                                        fill="#909191"></path>
                                                </svg>