<svg xmlns="http://www.w3.org/2000/svg" viewBox="-87 0 512 512">
                                                    <g>
                                                        <path
                                                            d="m130 129c0-21.503906 17.496094-39 39-39s39 17.496094 39 39v53h90v-53c0-71.132812-57.867188-129-129-129s-129 57.867188-129 129v53h90zm0 0"
                                                            data-original="#000000" class="active-path"
                                                            style="fill:#909191" data-old_color="#000000"></path>
                                                        <path
                                                            d="m0 212v300h338v-300zm169 240c-57.898438 0-105-47.101562-105-105s47.101562-105 105-105 105 47.101562 105 105-47.101562 105-105 105zm0 0"
                                                            data-original="#000000" class="active-path"
                                                            style="fill:#909191" data-old_color="#000000"></path>
                                                        <path
                                                            d="m169 272c-41.355469 0-75 33.644531-75 75s33.644531 75 75 75 75-33.644531 75-75-33.644531-75-75-75zm-.113281 94.636719-46.5625-44.476563 20.722656-21.691406 26.066406 24.894531 14.460938-13.511719 20.480469 21.921876zm0 0"
                                                            data-original="#000000" class="active-path"
                                                            style="fill:#909191" data-old_color="#000000"></path>
                                                    </g>
                                                </svg>