<svg width="18" height="15" viewBox="0 0 18 15" fill="none"
                                            xmlns="http://www.w3.org/2000/svg">
                                            <path opacity="0.3"
                                                d="M8.30801 3.66667L7.82467 3.175L6.64134 2H2.33301V12H15.6663V3.66667H8.99967H8.30801Z"
                                                fill="#909191"></path>
                                            <path fill-rule="evenodd" clip-rule="evenodd"
                                                d="M8.99984 2.00004H15.6665C16.5832 2.00004 17.3332 2.75004 17.3332 3.66671V12C17.3332 12.9167 16.5832 13.6667 15.6665 13.6667H2.33317C1.4165 13.6667 0.666504 12.9167 0.666504 12L0.674837 2.00004C0.674837 1.08337 1.4165 0.333374 2.33317 0.333374H7.33317L8.99984 2.00004ZM2.33317 2.00004V12H15.6665V3.66671H8.99984H8.30817L7.8165 3.17504L6.6415 2.00004H2.33317Z"
                                                fill="#909191"></path>
                                        </svg>