<svg width="20" height="20" viewBox="0 0 20 20" fill="none"
                                            xmlns="http://www.w3.org/2000/svg">
                                            <path opacity="0.3" fill-rule="evenodd" clip-rule="evenodd"
                                                d="M9.99967 3.33325C6.32467 3.33325 3.33301 6.32492 3.33301 9.99992C3.33301 13.6749 6.32467 16.6666 9.99967 16.6666C13.6747 16.6666 16.6663 13.6749 16.6663 9.99992C16.6663 6.32492 13.6747 3.33325 9.99967 3.33325ZM9.16634 14.9999V13.3333H10.833V14.9999H9.16634ZM10.6417 9.85131C9.95144 10.3804 9.16634 10.9822 9.16634 12.4999H10.833C10.833 11.5871 11.4255 11.0693 12.0336 10.5379C12.6747 9.97768 13.333 9.40235 13.333 8.33325C13.333 6.49159 11.8413 4.99992 9.99967 4.99992C8.15801 4.99992 6.66634 6.49159 6.66634 8.33325H8.33301C8.33301 7.41658 9.08301 6.66659 9.99967 6.66659C10.9163 6.66659 11.6663 7.41658 11.6663 8.33325C11.6663 9.06593 11.1832 9.43626 10.6417 9.85131Z"
                                                fill="#909191"></path>
                                            <rect x="9.1665" y="13.3333" width="1.66667" height="1.66667"
                                                fill="#909191"></rect>
                                            <path fill-rule="evenodd" clip-rule="evenodd"
                                                d="M1.6665 9.99996C1.6665 5.39996 5.39984 1.66663 9.99984 1.66663C14.5998 1.66663 18.3332 5.39996 18.3332 9.99996C18.3332 14.6 14.5998 18.3333 9.99984 18.3333C5.39984 18.3333 1.6665 14.6 1.6665 9.99996ZM3.33317 9.99996C3.33317 13.675 6.32484 16.6666 9.99984 16.6666C13.6748 16.6666 16.6665 13.675 16.6665 9.99996C16.6665 6.32496 13.6748 3.33329 9.99984 3.33329C6.32484 3.33329 3.33317 6.32496 3.33317 9.99996Z"
                                                fill="#909191"></path>
                                            <path
                                                d="M10.0015 5C8.15892 5 6.6665 6.49167 6.6665 8.33333H8.334C8.334 7.41667 9.08438 6.66667 10.0015 6.66667C10.9186 6.66667 11.669 7.41667 11.669 8.33333C11.669 10 9.16775 9.79167 9.16775 12.5H10.8353C10.8353 10.625 13.3365 10.4167 13.3365 8.33333C13.3365 6.49167 11.8441 5 10.0015 5Z"
                                                fill="#909191"></path>
                                        </svg>