<svg width="20" height="20" viewBox="0 0 20 20" fill="none"
                                            xmlns="http://www.w3.org/2000/svg">
                                            <path opacity="0.3"
                                                d="M10.0082 15C8.77484 15 7.7165 14.325 7.13317 13.3334H4.1665V15.8334H15.8332V13.3334H12.8748C12.2998 14.325 11.2332 15 10.0082 15Z"
                                                fill="currentcolor"></path>
                                            <path fill-rule="evenodd" clip-rule="evenodd"
                                                d="M15.8333 2.5H4.16667C3.25 2.5 2.5 3.25 2.5 4.16667V15.8333C2.5 16.75 3.24167 17.5 4.16667 17.5H15.8333C16.75 17.5 17.5 16.75 17.5 15.8333V4.16667C17.5 3.25 16.75 2.5 15.8333 2.5ZM15.8333 15.8333H4.16667V13.3333H7.13333C7.70833 14.325 8.775 15 10.0083 15C11.2417 15 12.3 14.325 12.8833 13.3333H15.8333V15.8333ZM11.6667 11.6667H15.8333V4.16667H4.16667V11.6667H8.33333C8.33333 12.5833 9.08333 13.3333 10 13.3333C10.9167 13.3333 11.6667 12.5833 11.6667 11.6667Z"
                                                fill="currentcolor"></path>
                                        </svg>