<svg width="20" height="20" viewBox="0 0 20 20" fill="none"
                                            xmlns="http://www.w3.org/2000/svg">
                                            <path opacity="0.3" fill-rule="evenodd" clip-rule="evenodd"
                                                d="M15.4831 6.15825L16.0664 7.16659L15.1498 7.86659L14.4081 8.44992L14.5248 9.39159C14.5498 9.64159 14.5664 9.82492 14.5664 9.99992C14.5664 10.1749 14.5581 10.3499 14.5248 10.6083L14.4081 11.5499L15.1498 12.1333L16.0498 12.8333L15.4664 13.8416L14.4081 13.4166L13.5414 13.0666L12.7914 13.6333C12.4331 13.8999 12.0914 14.0999 11.7498 14.2416L10.8664 14.5999L10.7331 15.5416L10.5748 16.6666H9.41644L9.25811 15.5333L9.12477 14.5916L8.24144 14.2333C7.88311 14.0916 7.54144 13.8916 7.21644 13.6416L6.45811 13.0583L5.57477 13.4166L4.51644 13.8416L3.93311 12.8333L4.83311 12.1333L5.57477 11.5499L5.45811 10.6083C5.43311 10.3583 5.41644 10.1666 5.41644 9.99992C5.41644 9.83325 5.43311 9.64159 5.45811 9.39159L5.57477 8.44992L4.83311 7.86659L3.93311 7.16659L4.51644 6.15825L5.57477 6.59159L6.44977 6.94159L7.19977 6.37492C7.55811 6.10825 7.89977 5.90825 8.24144 5.76659L9.12477 5.39992L9.25811 4.45825L9.41644 3.33325H10.5831L10.7414 4.46659L10.8748 5.40825L11.7581 5.76659C12.1164 5.90825 12.4581 6.10825 12.7831 6.35825L13.5414 6.94159L14.4248 6.58325L15.4831 6.15825ZM6.66644 9.99992C6.66644 11.8416 8.15811 13.3333 9.99977 13.3333C11.8414 13.3333 13.3331 11.8416 13.3331 9.99992C13.3331 8.15825 11.8414 6.66659 9.99977 6.66659C8.15811 6.66659 6.66644 8.15825 6.66644 9.99992Z"
                                                fill="#909191"></path>
                                            <path fill-rule="evenodd" clip-rule="evenodd"
                                                d="M16.2499 9.99996C16.2499 10.2833 16.2249 10.55 16.1915 10.8166L17.9499 12.1916C18.1082 12.3166 18.1499 12.5416 18.0499 12.725L16.3832 15.6083C16.3082 15.7416 16.1665 15.8166 16.0249 15.8166C15.9749 15.8166 15.9249 15.8083 15.8749 15.7916L13.7999 14.9583C13.3665 15.2833 12.8999 15.5666 12.3915 15.775L12.0749 17.9833C12.0499 18.1833 11.8749 18.3333 11.6665 18.3333H8.3332C8.12487 18.3333 7.94987 18.1833 7.92487 17.9833L7.6082 15.775C7.09987 15.5666 6.6332 15.2916 6.19987 14.9583L4.12487 15.7916C4.0832 15.8083 4.0332 15.8166 3.9832 15.8166C3.8332 15.8166 3.69153 15.7416 3.61653 15.6083L1.94987 12.725C1.84987 12.5416 1.89153 12.3166 2.04987 12.1916L3.8082 10.8166C3.77487 10.55 3.74987 10.275 3.74987 9.99996C3.74987 9.72496 3.77487 9.44996 3.8082 9.18329L2.04987 7.80829C1.89153 7.68329 1.84153 7.45829 1.94987 7.27496L3.61653 4.39163C3.69153 4.25829 3.8332 4.18329 3.97487 4.18329C4.02487 4.18329 4.07487 4.19163 4.12487 4.20829L6.19987 5.04163C6.6332 4.71663 7.09987 4.43329 7.6082 4.22496L7.92487 2.01663C7.94987 1.81663 8.12487 1.66663 8.3332 1.66663H11.6665C11.8749 1.66663 12.0499 1.81663 12.0749 2.01663L12.3915 4.22496C12.8999 4.43329 13.3665 4.70829 13.7999 5.04163L15.8749 4.20829C15.9165 4.19163 15.9665 4.18329 16.0165 4.18329C16.1665 4.18329 16.3082 4.25829 16.3832 4.39163L18.0499 7.27496C18.1499 7.45829 18.1082 7.68329 17.9499 7.80829L16.1915 9.18329C16.2249 9.44996 16.2499 9.71663 16.2499 9.99996ZM14.5832 9.99996C14.5832 9.82496 14.5749 9.64996 14.5415 9.39163L14.4249 8.44996L15.1665 7.86663L16.0582 7.15829L15.4749 6.14996L14.4165 6.57496L13.5332 6.93329L12.7749 6.34996C12.4415 6.09996 12.1082 5.90829 11.7499 5.75829L10.8665 5.39996L10.7332 4.45829L10.5749 3.33329H9.41653L9.24987 4.45829L9.11653 5.39996L8.2332 5.75829C7.89153 5.89996 7.54987 6.09996 7.19153 6.36663L6.44153 6.93329L5.57487 6.58329L4.51653 6.15829L3.9332 7.16663L4.8332 7.86663L5.57487 8.44996L5.4582 9.39163C5.4332 9.64163 5.41653 9.83329 5.41653 9.99996C5.41653 10.1666 5.4332 10.3583 5.4582 10.6166L5.57487 11.5583L4.8332 12.1416L3.9332 12.8416L4.51653 13.85L5.57487 13.425L6.4582 13.0666L7.21653 13.65C7.54987 13.9 7.8832 14.0916 8.24153 14.2416L9.12487 14.6L9.2582 15.5416L9.41653 16.6666H10.5832L10.7499 15.5416L10.8832 14.6L11.7665 14.2416C12.1082 14.1 12.4499 13.9 12.8082 13.6333L13.5582 13.0666L14.4249 13.4166L15.4832 13.8416L16.0665 12.8333L15.1665 12.1333L14.4249 11.55L14.5415 10.6083C14.5665 10.3583 14.5832 10.175 14.5832 9.99996Z"
                                                fill="#909191"></path>
                                            <path fill-rule="evenodd" clip-rule="evenodd"
                                                d="M6.6665 9.99996C6.6665 8.15829 8.15817 6.66663 9.99984 6.66663C11.8415 6.66663 13.3332 8.15829 13.3332 9.99996C13.3332 11.8416 11.8415 13.3333 9.99984 13.3333C8.15817 13.3333 6.6665 11.8416 6.6665 9.99996ZM8.33317 9.99996C8.33317 10.9166 9.08317 11.6666 9.99984 11.6666C10.9165 11.6666 11.6665 10.9166 11.6665 9.99996C11.6665 9.08329 10.9165 8.33329 9.99984 8.33329C9.08317 8.33329 8.33317 9.08329 8.33317 9.99996Z"
                                                fill="#909191"></path>
                                        </svg>