<svg width="24" height="8" viewBox="0 0 24 8" fill="none"
                                        xmlns="http://www.w3.org/2000/svg">
                                        <rect x="24" y="8" width="24" height="8" rx="4" transform="rotate(-180 24 8)"
                                            fill="#E4E8EB"></rect>
                                        <path fill-rule="evenodd" clip-rule="evenodd"
                                            d="M15.9185 3.83679C15.9185 4.93679 16.8002 5.83679 17.8777 5.83679C18.9553 5.83679 19.8369 4.93679 19.8369 3.83679C19.8369 2.73679 18.9553 1.83679 17.8777 1.83679C16.8002 1.83679 15.9185 2.73679 15.9185 3.83679ZM13.9594 3.83679C13.9594 2.73679 13.0777 1.83679 12.0002 1.83679C10.9226 1.83679 10.041 2.73679 10.041 3.83679C10.041 4.93679 10.9226 5.83679 12.0002 5.83679C13.0777 5.83679 13.9594 4.93679 13.9594 3.83679ZM6.12263 1.83679C7.20018 1.83679 8.08181 2.73679 8.08181 3.83679C8.08181 4.93679 7.20018 5.83679 6.12263 5.83679C5.04508 5.83679 4.16344 4.93679 4.16344 3.83679C4.16344 2.73679 5.04508 1.83679 6.12263 1.83679Z"
                                            fill="#909191"></path>
                                    </svg>