<svg width="20" height="20" viewBox="0 0 20 20" fill="none"
                                            xmlns="http://www.w3.org/2000/svg">
                                            <path opacity="0.3" fill-rule="evenodd" clip-rule="evenodd"
                                                d="M3.77783 10.0001C3.77783 6.56894 6.56894 3.77783 10.0001 3.77783C13.4312 3.77783 16.2223 6.56894 16.2223 10.0001C16.2223 13.4312 13.4312 16.2223 10.0001 16.2223C6.56894 16.2223 3.77783 13.4312 3.77783 10.0001ZM9.11117 10.8889L13.3334 13.4223L14.0001 12.3289L10.4445 10.2223V5.55561H9.11117V10.8889Z"
                                                fill="currentcolor"></path>
                                            <path
                                                d="M10.4447 5.55554H9.11133V10.8889L13.3336 13.4222L14.0002 12.3289L10.4447 10.2222V5.55554Z"
                                                fill="currentcolor"></path>
                                            <path fill-rule="evenodd" clip-rule="evenodd"
                                                d="M2 10C2 5.58222 5.58222 2 10 2C14.4178 2 18 5.58222 18 10C18 14.4178 14.4178 18 10 18C5.58222 18 2 14.4178 2 10ZM3.77778 10C3.77778 13.4311 6.56889 16.2222 10 16.2222C13.4311 16.2222 16.2222 13.4311 16.2222 10C16.2222 6.56889 13.4311 3.77778 10 3.77778C6.56889 3.77778 3.77778 6.56889 3.77778 10Z"
                                                fill="currentcolor"></path>
                                        </svg>