<svg width="20" height="20" viewBox="0 0 20 20" fill="none"
                                            xmlns="http://www.w3.org/2000/svg">
                                            <path opacity="0.3" fill-rule="evenodd" clip-rule="evenodd"
                                                d="M7.58317 4.16663L4.1665 7.58329V12.4166L7.58317 15.8333H12.4165L15.8332 12.4166V7.58329L12.4165 4.16663H7.58317ZM9.99984 14.1666C9.5415 14.1666 9.1665 13.7916 9.1665 13.3333C9.1665 12.875 9.5415 12.5 9.99984 12.5C10.4582 12.5 10.8332 12.875 10.8332 13.3333C10.8332 13.7916 10.4582 14.1666 9.99984 14.1666ZM9.1665 11.6666H10.8332V5.83329H9.1665V11.6666Z"
                                                fill="currentcolor"></path>
                                            <path fill-rule="evenodd" clip-rule="evenodd"
                                                d="M6.89167 2.5H13.1083L17.5 6.89167V13.1083L13.1083 17.5H6.89167L2.5 13.1083V6.89167L6.89167 2.5ZM12.4167 15.8333L15.8333 12.4167V7.58333L12.4167 4.16667H7.58333L4.16667 7.58333V12.4167L7.58333 15.8333H12.4167Z"
                                                fill="currentcolor"></path>
                                            <path
                                                d="M9.99984 14.1667C10.4601 14.1667 10.8332 13.7936 10.8332 13.3333C10.8332 12.8731 10.4601 12.5 9.99984 12.5C9.5396 12.5 9.1665 12.8731 9.1665 13.3333C9.1665 13.7936 9.5396 14.1667 9.99984 14.1667Z"
                                                fill="currentcolor"></path>
                                            <rect x="9.1665" y="5.83337" width="1.66667" height="5.83333"
                                                fill="currentcolor"></rect>
                                        </svg>