<svg width="20" height="20" viewBox="0 0 20 20" fill="none"
                                            xmlns="http://www.w3.org/2000/svg">
                                            <path opacity="0.3"
                                                d="M10.0667 12.75L6.93333 14.6417L7.76667 11.075L5 8.675L8.65 8.35833L10.0667 5L11.4917 8.36667L15.1417 8.68333L12.375 11.0833L13.2083 14.65L10.0667 12.75Z"
                                                fill="currentcolor"></path>
                                            <path fill-rule="evenodd" clip-rule="evenodd"
                                                d="M12.3415 7.18329L18.3332 7.69996L13.7915 11.6416L15.1498 17.5L9.99984 14.3916L4.84984 17.5L6.2165 11.6416L1.6665 7.69996L7.65817 7.19163L9.99984 1.66663L12.3415 7.18329ZM6.8665 14.725L9.99984 12.8333L13.1415 14.7333L12.3082 11.1666L15.0748 8.76663L11.4248 8.44996L9.99984 5.08329L8.58317 8.44163L4.93317 8.75829L7.69984 11.1583L6.8665 14.725Z"
                                                fill="currentcolor"></path>
                                        </svg>