<svg width="20" height="20" viewBox="0 0 20 20" fill="none"
                                            xmlns="http://www.w3.org/2000/svg">
                                            <path opacity="0.3"
                                                d="M9.30801 6.66667L8.82467 6.175L7.64134 5H3.33301V15H16.6663V6.66667H9.99967H9.30801Z"
                                                fill="#4285F4"></path>
                                            <path fill-rule="evenodd" clip-rule="evenodd"
                                                d="M9.99984 5.00004H16.6665C17.5832 5.00004 18.3332 5.75004 18.3332 6.66671V15C18.3332 15.9167 17.5832 16.6667 16.6665 16.6667H3.33317C2.4165 16.6667 1.6665 15.9167 1.6665 15L1.67484 5.00004C1.67484 4.08337 2.4165 3.33337 3.33317 3.33337H8.33317L9.99984 5.00004ZM3.33317 5.00004V15H16.6665V6.66671H9.99984H9.30817L8.8165 6.17504L7.6415 5.00004H3.33317Z"
                                                fill="#4285F4"></path>
                                        </svg>